<svg xmlns="http://www.w3.org/2000/svg" viewBox="0 0 1920 1080" role="img" aria-labelledby="title desc">
  <title id="title">Horse racing hero image</title>
  <desc id="desc">Stylized racehorses leaving the starting gate.</desc>
  <defs>
    <linearGradient id="sky" x1="0" y1="0" x2="1" y2="1">
      <stop offset="0" stop-color="#2b1710"/>
      <stop offset="0.45" stop-color="#6c3f24"/>
      <stop offset="1" stop-color="#d9a441"/>
    </linearGradient>
    <linearGradient id="track" x1="0" y1="0" x2="0" y2="1">
      <stop offset="0" stop-color="#9a6038"/>
      <stop offset="1" stop-color="#3a2118"/>
    </linearGradient>
    <filter id="blur" x="-20%" y="-20%" width="140%" height="140%">
      <feGaussianBlur stdDeviation="28"/>
    </filter>
  </defs>
  <rect width="1920" height="1080" fill="url(#sky)"/>
  <circle cx="1500" cy="210" r="160" fill="#f6df9a" opacity="0.5" filter="url(#blur)"/>
  <path d="M0 720 C300 640 520 720 760 665 C1040 600 1320 685 1920 600 L1920 1080 L0 1080 Z" fill="url(#track)"/>
  <g opacity="0.16" stroke="#fff4d0" stroke-width="10">
    <path d="M0 845 C450 760 920 755 1920 690" fill="none"/>
    <path d="M0 930 C520 835 1020 825 1920 760" fill="none"/>
  </g>
  <g transform="translate(320 430) scale(1.08)" fill="#120b08">
    <path d="M204 174c52-66 137-80 217-52 66 23 122 24 187 12 60-11 122-20 181 7 32 15 46 44 32 77-17 40-64 63-108 58-24-3-48-12-72-17-51-11-105-3-153 16-51 20-105 50-162 39-49-10-86-45-119-81-23 18-45 37-66 58-15 15-39-2-31-22 18-45 55-69 94-95z"/>
    <path d="M676 254c18 63 22 129 13 194-3 24-38 21-40-3-5-58-13-114-33-169z"/>
    <path d="M400 285c-8 64-31 122-69 173-14 18-42 0-34-21 22-58 36-116 40-178z"/>
    <path d="M274 257c-39 33-69 73-89 120-10 23-45 9-37-15 19-61 58-108 108-147z"/>
    <path d="M826 166c64-10 109-58 141-111 9-15 31-8 31 9-1 56-38 101-88 126-30 16-62 23-96 27z"/>
    <circle cx="880" cy="139" r="11" fill="#f6df9a"/>
  </g>
  <g transform="translate(850 500) scale(.82)" fill="#2b1710" opacity="0.92">
    <path d="M204 174c52-66 137-80 217-52 66 23 122 24 187 12 60-11 122-20 181 7 32 15 46 44 32 77-17 40-64 63-108 58-24-3-48-12-72-17-51-11-105-3-153 16-51 20-105 50-162 39-49-10-86-45-119-81-23 18-45 37-66 58-15 15-39-2-31-22 18-45 55-69 94-95z"/>
    <path d="M676 254c18 63 22 129 13 194-3 24-38 21-40-3-5-58-13-114-33-169z"/>
    <path d="M400 285c-8 64-31 122-69 173-14 18-42 0-34-21 22-58 36-116 40-178z"/>
    <path d="M274 257c-39 33-69 73-89 120-10 23-45 9-37-15 19-61 58-108 108-147z"/>
    <path d="M826 166c64-10 109-58 141-111 9-15 31-8 31 9-1 56-38 101-88 126-30 16-62 23-96 27z"/>
  </g>
  <g opacity="0.24" fill="#fff4d0">
    <rect x="155" y="268" width="34" height="300" rx="8"/>
    <rect x="232" y="268" width="34" height="300" rx="8"/>
    <rect x="309" y="268" width="34" height="300" rx="8"/>
    <rect x="386" y="268" width="34" height="300" rx="8"/>
    <rect x="128" y="245" width="330" height="26" rx="9"/>
  </g>
</svg>
